<mxfile host="app.diagrams.net" modified="2024-01-19T07:48:04.428Z" agent="Mozilla/5.0 (Windows NT 10.0; Win64; x64) AppleWebKit/537.36 (KHTML, like Gecko) Chrome/120.0.0.0 Safari/537.36 Edg/120.0.0.0" etag="Uediy-G18JJk5K13gYtf" version="22.1.18" type="github">
  <diagram name="Page-1" id="5f0bae14-7c28-e335-631c-24af17079c00">
    <mxGraphModel dx="2722" dy="1065" grid="1" gridSize="10" guides="1" tooltips="1" connect="1" arrows="1" fold="1" page="1" pageScale="1" pageWidth="1100" pageHeight="850" background="none" math="0" shadow="0">
      <root>
        <mxCell id="0" />
        <mxCell id="1" parent="0" />
        <mxCell id="PG6F--C3BCuWcFgW1hUm-42" value="" style="endArrow=classic;dashed=1;html=1;rounded=0;elbow=vertical;entryX=0;entryY=1;entryDx=0;entryDy=-15;entryPerimeter=0;strokeWidth=3;fillColor=#f8cecc;strokeColor=#b85450;endFill=1;" edge="1" parent="1" target="PG6F--C3BCuWcFgW1hUm-6">
          <mxGeometry width="50" height="50" relative="1" as="geometry">
            <mxPoint x="420" y="520" as="sourcePoint" />
            <mxPoint x="870" y="85" as="targetPoint" />
          </mxGeometry>
        </mxCell>
        <mxCell id="39150e848f15840c-1" value="app.vue&lt;br&gt;" style="verticalAlign=top;align=left;spacingTop=8;spacingLeft=2;spacingRight=12;shape=cube;size=10;direction=south;fontStyle=4;html=1;rounded=0;shadow=0;comic=0;labelBackgroundColor=none;strokeWidth=1;fontFamily=Verdana;fontSize=12" parent="1" vertex="1">
          <mxGeometry x="120" y="70" width="330" height="220" as="geometry" />
        </mxCell>
        <mxCell id="39150e848f15840c-3" value="TodoAddButton.vue" style="verticalAlign=top;align=left;spacingTop=8;spacingLeft=2;spacingRight=12;shape=cube;size=10;direction=south;fontStyle=4;html=1;rounded=0;shadow=0;comic=0;labelBackgroundColor=none;strokeWidth=1;fontFamily=Verdana;fontSize=12" parent="1" vertex="1">
          <mxGeometry x="-430" y="520" width="260" height="150" as="geometry" />
        </mxCell>
        <mxCell id="xIhWZkwzxBWh5TZMSCm_-5" value="TodoInputText.vue" style="verticalAlign=top;align=left;spacingTop=8;spacingLeft=2;spacingRight=12;shape=cube;size=10;direction=south;fontStyle=4;html=1;rounded=0;shadow=0;comic=0;labelBackgroundColor=none;strokeWidth=1;fontFamily=Verdana;fontSize=12" parent="1" vertex="1">
          <mxGeometry x="150" y="520" width="270" height="150" as="geometry" />
        </mxCell>
        <mxCell id="PG6F--C3BCuWcFgW1hUm-1" value="TodoCalendar.vue" style="verticalAlign=top;align=left;spacingTop=8;spacingLeft=2;spacingRight=12;shape=cube;size=10;direction=south;fontStyle=4;html=1;rounded=0;shadow=0;comic=0;labelBackgroundColor=none;strokeWidth=1;fontFamily=Verdana;fontSize=12" vertex="1" parent="1">
          <mxGeometry x="680" y="520" width="260" height="150" as="geometry" />
        </mxCell>
        <mxCell id="PG6F--C3BCuWcFgW1hUm-2" value="TodoComplete.vue" style="verticalAlign=top;align=left;spacingTop=8;spacingLeft=2;spacingRight=12;shape=cube;size=10;direction=south;fontStyle=4;html=1;rounded=0;shadow=0;comic=0;labelBackgroundColor=none;strokeWidth=1;fontFamily=Verdana;fontSize=12" vertex="1" parent="1">
          <mxGeometry x="680" y="850" width="260" height="150" as="geometry" />
        </mxCell>
        <mxCell id="PG6F--C3BCuWcFgW1hUm-6" value="LocalStorage" style="shape=cylinder3;whiteSpace=wrap;html=1;boundedLbl=1;backgroundOutline=1;size=15;" vertex="1" parent="1">
          <mxGeometry x="680" width="160" height="110" as="geometry" />
        </mxCell>
        <mxCell id="PG6F--C3BCuWcFgW1hUm-7" style="edgeStyle=elbowEdgeStyle;rounded=0;orthogonalLoop=1;jettySize=auto;elbow=vertical;html=1;strokeWidth=6;fillColor=#dae8fc;strokeColor=#6c8ebf;" edge="1" parent="1">
          <mxGeometry relative="1" as="geometry">
            <mxPoint x="220" y="290" as="sourcePoint" />
            <mxPoint x="220" y="520" as="targetPoint" />
            <Array as="points">
              <mxPoint x="220" y="420" />
            </Array>
          </mxGeometry>
        </mxCell>
        <mxCell id="PG6F--C3BCuWcFgW1hUm-8" style="edgeStyle=elbowEdgeStyle;rounded=0;orthogonalLoop=1;jettySize=auto;html=1;entryX=0;entryY=0;entryDx=0;entryDy=125;entryPerimeter=0;exitX=0;exitY=0;exitDx=115;exitDy=330;exitPerimeter=0;fillColor=#dae8fc;strokeColor=#6c8ebf;strokeWidth=6;" edge="1" parent="1" source="39150e848f15840c-1" target="39150e848f15840c-3">
          <mxGeometry relative="1" as="geometry">
            <Array as="points">
              <mxPoint x="-295" y="350" />
            </Array>
          </mxGeometry>
        </mxCell>
        <mxCell id="PG6F--C3BCuWcFgW1hUm-9" style="edgeStyle=elbowEdgeStyle;rounded=0;orthogonalLoop=1;jettySize=auto;html=1;exitX=0;exitY=0;exitDx=115;exitDy=330;exitPerimeter=0;fillColor=#dae8fc;strokeColor=#6c8ebf;strokeWidth=6;" edge="1" parent="1">
          <mxGeometry relative="1" as="geometry">
            <mxPoint x="450" y="185" as="sourcePoint" />
            <mxPoint x="820" y="520" as="targetPoint" />
            <Array as="points">
              <mxPoint x="820" y="210" />
            </Array>
          </mxGeometry>
        </mxCell>
        <mxCell id="PG6F--C3BCuWcFgW1hUm-10" style="edgeStyle=elbowEdgeStyle;rounded=0;orthogonalLoop=1;jettySize=auto;elbow=vertical;html=1;strokeWidth=6;fillColor=#dae8fc;strokeColor=#6c8ebf;" edge="1" parent="1">
          <mxGeometry relative="1" as="geometry">
            <mxPoint x="809.41" y="670" as="sourcePoint" />
            <mxPoint x="809" y="850" as="targetPoint" />
            <Array as="points" />
          </mxGeometry>
        </mxCell>
        <mxCell id="PG6F--C3BCuWcFgW1hUm-12" style="edgeStyle=elbowEdgeStyle;rounded=0;orthogonalLoop=1;jettySize=auto;html=1;fillColor=#f8cecc;strokeColor=#b85450;strokeWidth=6;entryX=0.632;entryY=1.01;entryDx=0;entryDy=0;entryPerimeter=0;" edge="1" parent="1">
          <mxGeometry relative="1" as="geometry">
            <mxPoint x="321" y="280" as="targetPoint" />
            <mxPoint x="320" y="508" as="sourcePoint" />
            <Array as="points" />
          </mxGeometry>
        </mxCell>
        <mxCell id="PG6F--C3BCuWcFgW1hUm-13" style="edgeStyle=elbowEdgeStyle;rounded=0;orthogonalLoop=1;jettySize=auto;html=1;fillColor=#f8cecc;strokeColor=#b85450;strokeWidth=6;entryX=0.632;entryY=1.01;entryDx=0;entryDy=0;entryPerimeter=0;" edge="1" parent="1" source="PG6F--C3BCuWcFgW1hUm-1">
          <mxGeometry relative="1" as="geometry">
            <mxPoint x="450" y="212" as="targetPoint" />
            <mxPoint x="780" y="520" as="sourcePoint" />
            <Array as="points">
              <mxPoint x="780" y="380" />
            </Array>
          </mxGeometry>
        </mxCell>
        <mxCell id="PG6F--C3BCuWcFgW1hUm-18" value="Props" style="swimlane;fontStyle=0;childLayout=stackLayout;horizontal=1;startSize=30;horizontalStack=0;resizeParent=1;resizeParentMax=0;resizeLast=0;collapsible=1;marginBottom=0;whiteSpace=wrap;html=1;fillColor=#dae8fc;strokeColor=#6c8ebf;" vertex="1" parent="1">
          <mxGeometry x="60" y="320" width="140" height="120" as="geometry" />
        </mxCell>
        <mxCell id="PG6F--C3BCuWcFgW1hUm-19" value="id : String" style="text;strokeColor=none;fillColor=none;align=left;verticalAlign=middle;spacingLeft=4;spacingRight=4;overflow=hidden;points=[[0,0.5],[1,0.5]];portConstraint=eastwest;rotatable=0;whiteSpace=wrap;html=1;" vertex="1" parent="PG6F--C3BCuWcFgW1hUm-18">
          <mxGeometry y="30" width="140" height="30" as="geometry" />
        </mxCell>
        <mxCell id="PG6F--C3BCuWcFgW1hUm-20" value="text : String" style="text;strokeColor=none;fillColor=none;align=left;verticalAlign=middle;spacingLeft=4;spacingRight=4;overflow=hidden;points=[[0,0.5],[1,0.5]];portConstraint=eastwest;rotatable=0;whiteSpace=wrap;html=1;" vertex="1" parent="PG6F--C3BCuWcFgW1hUm-18">
          <mxGeometry y="60" width="140" height="30" as="geometry" />
        </mxCell>
        <mxCell id="PG6F--C3BCuWcFgW1hUm-21" value="checked : boolean" style="text;strokeColor=none;fillColor=none;align=left;verticalAlign=middle;spacingLeft=4;spacingRight=4;overflow=hidden;points=[[0,0.5],[1,0.5]];portConstraint=eastwest;rotatable=0;whiteSpace=wrap;html=1;" vertex="1" parent="PG6F--C3BCuWcFgW1hUm-18">
          <mxGeometry y="90" width="140" height="30" as="geometry" />
        </mxCell>
        <mxCell id="PG6F--C3BCuWcFgW1hUm-22" value="Props" style="swimlane;fontStyle=0;childLayout=stackLayout;horizontal=1;startSize=30;horizontalStack=0;resizeParent=1;resizeParentMax=0;resizeLast=0;collapsible=1;marginBottom=0;whiteSpace=wrap;html=1;fillColor=#dae8fc;strokeColor=#6c8ebf;" vertex="1" parent="1">
          <mxGeometry x="-260" y="120" width="140" height="60" as="geometry" />
        </mxCell>
        <mxCell id="PG6F--C3BCuWcFgW1hUm-23" value="propDate : String" style="text;strokeColor=none;fillColor=none;align=left;verticalAlign=middle;spacingLeft=4;spacingRight=4;overflow=hidden;points=[[0,0.5],[1,0.5]];portConstraint=eastwest;rotatable=0;whiteSpace=wrap;html=1;" vertex="1" parent="PG6F--C3BCuWcFgW1hUm-22">
          <mxGeometry y="30" width="140" height="30" as="geometry" />
        </mxCell>
        <mxCell id="PG6F--C3BCuWcFgW1hUm-26" value="Props" style="swimlane;fontStyle=0;childLayout=stackLayout;horizontal=1;startSize=30;horizontalStack=0;resizeParent=1;resizeParentMax=0;resizeLast=0;collapsible=1;marginBottom=0;whiteSpace=wrap;html=1;fillColor=#dae8fc;strokeColor=#6c8ebf;" vertex="1" parent="1">
          <mxGeometry x="840" y="290" width="140" height="60" as="geometry" />
        </mxCell>
        <mxCell id="PG6F--C3BCuWcFgW1hUm-27" value="count : Number" style="text;strokeColor=none;fillColor=none;align=left;verticalAlign=middle;spacingLeft=4;spacingRight=4;overflow=hidden;points=[[0,0.5],[1,0.5]];portConstraint=eastwest;rotatable=0;whiteSpace=wrap;html=1;" vertex="1" parent="PG6F--C3BCuWcFgW1hUm-26">
          <mxGeometry y="30" width="140" height="30" as="geometry" />
        </mxCell>
        <mxCell id="PG6F--C3BCuWcFgW1hUm-28" value="Props" style="swimlane;fontStyle=0;childLayout=stackLayout;horizontal=1;startSize=30;horizontalStack=0;resizeParent=1;resizeParentMax=0;resizeLast=0;collapsible=1;marginBottom=0;whiteSpace=wrap;html=1;fillColor=#dae8fc;strokeColor=#6c8ebf;" vertex="1" parent="1">
          <mxGeometry x="840" y="720" width="140" height="60" as="geometry" />
        </mxCell>
        <mxCell id="PG6F--C3BCuWcFgW1hUm-29" value="count : Number" style="text;strokeColor=none;fillColor=none;align=left;verticalAlign=middle;spacingLeft=4;spacingRight=4;overflow=hidden;points=[[0,0.5],[1,0.5]];portConstraint=eastwest;rotatable=0;whiteSpace=wrap;html=1;" vertex="1" parent="PG6F--C3BCuWcFgW1hUm-28">
          <mxGeometry y="30" width="140" height="30" as="geometry" />
        </mxCell>
        <mxCell id="PG6F--C3BCuWcFgW1hUm-30" value="Emit" style="swimlane;fontStyle=0;childLayout=stackLayout;horizontal=1;startSize=30;horizontalStack=0;resizeParent=1;resizeParentMax=0;resizeLast=0;collapsible=1;marginBottom=0;whiteSpace=wrap;html=1;fillColor=#f8cecc;strokeColor=#b85450;" vertex="1" parent="1">
          <mxGeometry x="620" y="290" width="140" height="90" as="geometry" />
        </mxCell>
        <mxCell id="PG6F--C3BCuWcFgW1hUm-31" value="Event :&amp;nbsp;click" style="text;strokeColor=none;fillColor=none;align=left;verticalAlign=middle;spacingLeft=4;spacingRight=4;overflow=hidden;points=[[0,0.5],[1,0.5]];portConstraint=eastwest;rotatable=0;whiteSpace=wrap;html=1;" vertex="1" parent="PG6F--C3BCuWcFgW1hUm-30">
          <mxGeometry y="30" width="140" height="30" as="geometry" />
        </mxCell>
        <mxCell id="PG6F--C3BCuWcFgW1hUm-32" value="param :&amp;nbsp;new Date()" style="text;strokeColor=none;fillColor=none;align=left;verticalAlign=middle;spacingLeft=4;spacingRight=4;overflow=hidden;points=[[0,0.5],[1,0.5]];portConstraint=eastwest;rotatable=0;whiteSpace=wrap;html=1;" vertex="1" parent="PG6F--C3BCuWcFgW1hUm-30">
          <mxGeometry y="60" width="140" height="30" as="geometry" />
        </mxCell>
        <mxCell id="PG6F--C3BCuWcFgW1hUm-38" value="Emit" style="swimlane;fontStyle=0;childLayout=stackLayout;horizontal=1;startSize=30;horizontalStack=0;resizeParent=1;resizeParentMax=0;resizeLast=0;collapsible=1;marginBottom=0;whiteSpace=wrap;html=1;fillColor=#f8cecc;strokeColor=#b85450;" vertex="1" parent="1">
          <mxGeometry x="340" y="320" width="140" height="120" as="geometry" />
        </mxCell>
        <mxCell id="PG6F--C3BCuWcFgW1hUm-39" value="Event : Button, CheckBox" style="text;strokeColor=none;fillColor=none;align=left;verticalAlign=middle;spacingLeft=4;spacingRight=4;overflow=hidden;points=[[0,0.5],[1,0.5]];portConstraint=eastwest;rotatable=0;whiteSpace=wrap;html=1;" vertex="1" parent="PG6F--C3BCuWcFgW1hUm-38">
          <mxGeometry y="30" width="140" height="30" as="geometry" />
        </mxCell>
        <mxCell id="PG6F--C3BCuWcFgW1hUm-40" value="Button param : String" style="text;strokeColor=none;fillColor=none;align=left;verticalAlign=middle;spacingLeft=4;spacingRight=4;overflow=hidden;points=[[0,0.5],[1,0.5]];portConstraint=eastwest;rotatable=0;whiteSpace=wrap;html=1;" vertex="1" parent="PG6F--C3BCuWcFgW1hUm-38">
          <mxGeometry y="60" width="140" height="30" as="geometry" />
        </mxCell>
        <mxCell id="PG6F--C3BCuWcFgW1hUm-41" value="CheckBox param : Object, String" style="text;strokeColor=none;fillColor=none;align=left;verticalAlign=middle;spacingLeft=4;spacingRight=4;overflow=hidden;points=[[0,0.5],[1,0.5]];portConstraint=eastwest;rotatable=0;whiteSpace=wrap;html=1;" vertex="1" parent="PG6F--C3BCuWcFgW1hUm-38">
          <mxGeometry y="90" width="140" height="30" as="geometry" />
        </mxCell>
        <mxCell id="PG6F--C3BCuWcFgW1hUm-43" value="" style="endArrow=classic;dashed=1;html=1;rounded=0;elbow=vertical;entryX=0;entryY=0.5;entryDx=0;entryDy=0;entryPerimeter=0;strokeWidth=3;fillColor=#f8cecc;strokeColor=#b85450;endFill=1;exitX=0;exitY=0;exitDx=105;exitDy=0;exitPerimeter=0;" edge="1" parent="1" source="39150e848f15840c-1" target="PG6F--C3BCuWcFgW1hUm-6">
          <mxGeometry width="50" height="50" relative="1" as="geometry">
            <mxPoint x="440" y="365" as="sourcePoint" />
            <mxPoint x="700" y="-60" as="targetPoint" />
          </mxGeometry>
        </mxCell>
        <mxCell id="PG6F--C3BCuWcFgW1hUm-44" value="" style="endArrow=none;dashed=1;html=1;rounded=0;elbow=vertical;entryX=0.145;entryY=1;entryDx=0;entryDy=-4.35;entryPerimeter=0;strokeWidth=3;fillColor=#dae8fc;strokeColor=#6c8ebf;endFill=0;exitX=0.401;exitY=-0.001;exitDx=0;exitDy=0;exitPerimeter=0;startArrow=classic;startFill=1;" edge="1" parent="1" source="xIhWZkwzxBWh5TZMSCm_-5" target="PG6F--C3BCuWcFgW1hUm-6">
          <mxGeometry width="50" height="50" relative="1" as="geometry">
            <mxPoint x="430" y="592.5" as="sourcePoint" />
            <mxPoint x="690" y="167.5" as="targetPoint" />
          </mxGeometry>
        </mxCell>
        <mxCell id="PG6F--C3BCuWcFgW1hUm-45" value="" style="endArrow=none;dashed=1;html=1;rounded=0;elbow=vertical;entryX=0;entryY=0.5;entryDx=0;entryDy=0;entryPerimeter=0;strokeWidth=3;fillColor=#dae8fc;strokeColor=#6c8ebf;endFill=0;exitX=0;exitY=0;exitDx=105;exitDy=0;exitPerimeter=0;startArrow=classic;startFill=1;" edge="1" parent="1">
          <mxGeometry width="50" height="50" relative="1" as="geometry">
            <mxPoint x="450" y="150" as="sourcePoint" />
            <mxPoint x="680" y="30" as="targetPoint" />
          </mxGeometry>
        </mxCell>
      </root>
    </mxGraphModel>
  </diagram>
</mxfile>
